<?xml version="1.0" encoding="iso-8859-1"?>
<!-- Generator: Adobe Illustrator 19.0.0, SVG Export Plug-In . SVG Version: 6.00 Build 0)  -->
<svg version="1.1" id="Capa_1" xmlns="http://www.w3.org/2000/svg" xmlns:xlink="http://www.w3.org/1999/xlink" x="0px" y="0px"
	 viewBox="0 0 512 512" style="enable-background:new 0 0 512 512;" xml:space="preserve">
<g transform="translate(-1)">
	<g>
		<g>
			<circle cx="257" cy="42.667" r="8.533"/>
			<circle cx="214.333" cy="59.733" r="8.533"/>
			<circle cx="299.667" cy="59.733" r="8.533"/>
			<circle cx="180.2" cy="93.867" r="8.533"/>
			<circle cx="333.8" cy="93.867" r="8.533"/>
			<circle cx="257" cy="110.933" r="8.533"/>
			<circle cx="214.333" cy="102.4" r="8.533"/>
			<circle cx="299.667" cy="102.4" r="8.533"/>
			<circle cx="257" cy="76.8" r="8.533"/>
			<circle cx="257" cy="213.333" r="8.533"/>
			<circle cx="299.667" cy="196.267" r="8.533"/>
			<circle cx="214.333" cy="196.267" r="8.533"/>
			<circle cx="188.733" cy="170.667" r="8.533"/>
			<circle cx="257" cy="179.2" r="8.533"/>
			<circle cx="325.267" cy="170.667" r="8.533"/>
			<path d="M265.533,281.6h-17.067c-9.422,0.009-17.057,7.645-17.067,17.067v42.667c0.009,9.422,7.645,17.057,17.067,17.067h17.067
				c9.422-0.009,17.057-7.645,17.067-17.067v-42.667C282.591,289.245,274.955,281.609,265.533,281.6z M248.467,341.333v-42.667
				h17.067l0.012,42.667H248.467z"/>
			<path d="M365.345,60.159C342.04,22.743,301.08,0,257,0s-85.04,22.743-108.345,60.159
				C50.169,110.256-1.113,221.354,24.652,328.803S146.505,512.014,257,512c110.495,0.014,206.583-75.747,232.348-183.197
				S463.831,110.256,365.345,60.159z M257,17.067c58.686,0.095,107.152,45.864,110.605,104.448
				c-36.171,9.23-73.283,14.269-110.605,15.019c-37.322-0.758-74.433-5.797-110.605-15.02C149.848,62.93,198.315,17.162,257,17.067z
				 M367.367,139.181c-5.805,56.614-53.457,99.682-110.367,99.752c-56.91-0.07-104.562-43.139-110.367-99.752
				c36.128,8.948,73.152,13.785,110.367,14.419C294.215,152.966,331.238,148.13,367.367,139.181z M231.4,493.41
				C138.593,482.665,62.474,414.91,41.045,323.974S57.476,138.424,135.72,87.372c-17.073,50.452-0.948,106.2,40.422,139.748
				l34.803,213.568c1.872,11.595,9.61,21.397,20.454,25.908V493.41z M265.533,494.717c-2.836,0.108-5.672,0.216-8.533,0.216
				c-2.861,0-5.697-0.108-8.533-0.216v-25.384h17.067V494.717z M269.367,452.267h-24.733c-8.376,0.026-15.523-6.05-16.846-14.321
				l-32.218-197.703C214.387,250.599,235.521,256.02,257,256c21.479,0.02,42.613-5.401,61.431-15.757l-32.218,197.703
				C284.89,446.217,277.742,452.293,269.367,452.267z M282.6,493.41v-26.815c10.844-4.512,18.583-14.313,20.454-25.908
				l34.803-213.568c41.371-33.548,57.496-89.297,40.421-139.75c62.932,40.761,100.826,110.718,100.588,185.697
				C478.716,385.631,394.398,480.293,282.6,493.41z"/>
		</g>
	</g>
</g>
<g>
</g>
<g>
</g>
<g>
</g>
<g>
</g>
<g>
</g>
<g>
</g>
<g>
</g>
<g>
</g>
<g>
</g>
<g>
</g>
<g>
</g>
<g>
</g>
<g>
</g>
<g>
</g>
<g>
</g>
</svg>
