<?xml version="1.0" encoding="iso-8859-1"?>
<!-- Generator: Adobe Illustrator 19.0.0, SVG Export Plug-In . SVG Version: 6.00 Build 0)  -->
<svg version="1.1" id="Capa_1" xmlns="http://www.w3.org/2000/svg" xmlns:xlink="http://www.w3.org/1999/xlink" x="0px" y="0px"
	 viewBox="0 0 512 512" style="enable-background:new 0 0 512 512;" xml:space="preserve">
<g>
	<g>
		<path d="M507.783,27.865c-4.518-3.218-10.785-2.163-14.002,2.352l-78.257,109.869L366.799,31.919
			c-1.621-3.601-5.204-5.916-9.153-5.916H154.353c-3.949,0-7.531,2.315-9.154,5.916L96.475,140.087L18.217,30.218
			C15,25.702,8.733,24.651,4.215,27.866c-4.516,3.217-5.569,9.485-2.352,14.002l86.768,121.814l22.168,312.987
			c0.372,5.255,4.745,9.329,10.014,9.329h270.375c5.27,0,9.642-4.074,10.014-9.329l22.169-312.985l86.768-121.816
			C513.353,37.351,512.3,31.081,507.783,27.865z M160.841,46.081h190.317l46.864,104.036H113.978L160.841,46.081z M381.834,465.92
			H130.165L109.22,170.196h293.56L381.834,465.92z"/>
	</g>
</g>
<g>
	<g>
		<path d="M235.419,253.681c-5.545,0-10.039,4.495-10.039,10.039v108.674c0,5.545,4.495,10.039,10.039,10.039
			s10.039-4.495,10.039-10.039V263.72C245.459,258.175,240.964,253.681,235.419,253.681z"/>
	</g>
</g>
<g>
	<g>
		<path d="M276.58,253.681c-5.544,0-10.039,4.495-10.039,10.039v108.674c0,5.545,4.496,10.039,10.039,10.039
			s10.039-4.495,10.039-10.039V263.72C286.619,258.175,282.124,253.681,276.58,253.681z"/>
	</g>
</g>
<g>
	<g>
		<path d="M327.246,228.677c-18.837-24.81-44.14-38.474-71.246-38.474s-52.409,13.663-71.246,38.474
			c-18.212,23.987-28.242,55.727-28.242,89.375s10.03,65.388,28.242,89.375c18.838,24.811,44.14,38.474,71.246,38.474
			s52.409-13.663,71.246-38.474c18.213-23.987,28.242-55.727,28.242-89.375S345.459,252.664,327.246,228.677z M256,425.824
			c-43.787,0-79.41-48.346-79.41-107.771c0-59.425,35.623-107.771,79.41-107.771c43.786,0,79.41,48.346,79.41,107.771
			C335.41,377.478,299.786,425.824,256,425.824z"/>
	</g>
</g>
<g>
	<g>
		<path d="M334.968,111.735c-12.919,0-12.94,20.078,0,20.078C347.887,131.813,347.908,111.735,334.968,111.735z"/>
	</g>
</g>
<g>
	<g>
		<path d="M302.173,111.436h-55.55c-5.545,0-10.039,4.495-10.039,10.039s4.495,10.039,10.039,10.039h55.55
			c5.544,0,10.039-4.495,10.039-10.039S307.717,111.436,302.173,111.436z"/>
	</g>
</g>
<g>
</g>
<g>
</g>
<g>
</g>
<g>
</g>
<g>
</g>
<g>
</g>
<g>
</g>
<g>
</g>
<g>
</g>
<g>
</g>
<g>
</g>
<g>
</g>
<g>
</g>
<g>
</g>
<g>
</g>
</svg>
